<svg height="16" viewBox="0 0 16 16" width="16" xmlns="http://www.w3.org/2000/svg"><g fill="none" fill-rule="evenodd" transform=""><path d="m10.1744205 12.7806501c-.30145737-.1535869-.61499-.3296842-.93628354-.5278691.53662198-.4285097 1.07021034-.904274 1.59029014-1.4243539 3.538505-3.53850494 5.0255871-7.70233493 3.5355339-9.19238813-1.4900532-1.4900532-5.65388316-.00297106-9.19238812 3.53553391-3.53850497 3.53850496-5.02558711 7.70233492-3.53553391 9.19238812.74072778.7407278 2.14220812.745736 3.79915067.1287473.31496735.2448211.63205796.4764419.95013171.6942255-2.2588745.9884997-4.2966256 1.0438976-5.45638916-.115866-2.02466543-2.0246654-.34592267-6.72514513 3.5355339-10.60660171 3.88145658-3.88145657 8.58193631-5.56019933 10.60660171-3.5355339 2.0246654 2.02466542.3459227 6.72514514-3.5355339 10.60660171-.4447054.4447054-.9001619.8604965-1.3611134 1.2451162z" fill="#000" fill-opacity=".6" fill-rule="nonzero"/><path d="m6.47870998.84501696c-.31848489.21584273-.63602627.44548762-.9514808.68830065-1.72530149-.68138836-3.19237746-.70024956-3.956431.06908736-.76226272.76753373-.74540537 2.23963681-.07336035 3.97157843-.24214019.31648051-.47101204.63500202-.68597657.9544122-1.04926624-2.33162184-1.13193682-4.44563161.05223014-5.63798701 1.18685118-1.19505819 3.2931817-1.10872922 5.61501858-.04539163zm3.73496422 2.44005971c.4252916.36236454.8455484.7514008 1.2566189 1.16531383.4403834.44342857.8524117.89747314 1.2338931 1.35699414-.1546617.3025989-.3316147.61700944-.5304334.93892534-.4249206-.53447845-.896058-1.06585679-1.4105665-1.5839231-.486579-.48994372-.98498232-.94082898-1.48663164-1.35023212.3214068-.19768966.63521337-.37352393.93711954-.52707809zm4.8904372 6.31088582c1.0053859 2.29052261 1.0683171 4.35970531-.0982844 5.53437371-2.0246654 2.0386659-6.72514512.3483147-10.6066017-3.5599819-.41174315-.4145903-.79869945-.8384607-1.15907752-1.2674106.15129419-.30383372.32555984-.62035191.52235354-.94506539.40735444.50632289.85610605 1.00938229 1.34383076 1.50047959 3.53850497 3.5629736 7.70233492 5.0603388 9.19238812 3.5599819.7476521-.752822.7457654-2.1834627.1112815-3.8722772.2446818-.3149079.4762626-.63198829.6941097-.95010011z" fill="#000" fill-opacity=".4" fill-rule="nonzero"/><circle cx="8" cy="8" fill="#4ca6ff" fill-rule="evenodd" r="2.5"/><circle cx="8" cy="8" r="2" stroke="#000" stroke-opacity=".4"/></g></svg>