<svg xmlns="http://www.w3.org/2000/svg" width="16" height="16" viewBox="0 0 16 16">
  <g fill="none" fill-rule="evenodd">
    <ellipse cx="8.001" cy="7.996" fill="#48A1DB" fill-rule="nonzero" rx="3.003" ry="3"/>
    <path fill="#87BF56" d="M4.74236552,9.75851809 L1.27882891,3.75751809 L1.27482944,3.75101809 C1.23783439,3.81451809 1.00136603,4.13151809 0.966870643,4.19601809 C0.89088081,4.33651809 0.815890843,4.47701809 0.748899805,4.62201809 C0.695906895,4.73601809 0.648913183,4.85051809 0.601419537,4.96601809 C0.551926158,5.08601809 0.503432646,5.20551809 0.459938465,5.32851809 C0.411444953,5.46551809 0.368950638,5.60351809 0.327956123,5.74151809 C0.296460337,5.84751809 0.265964417,5.95301809 0.238968029,6.06001809 C0.201972978,6.20851809 0.170477192,6.35701809 0.141981004,6.50651809 C0.12198368,6.61151809 0.102486288,6.71601809 0.0869883619,6.82151809 C0.065491238,6.96751809 0.0484935121,7.11351809 0.034995318,7.25951809 C0.0239967895,7.37551809 0.0144980603,7.49151809 0.00899879606,7.60751809 C0.00249966557,7.74051809 0,7.87301809 0,8.00601809 C0,8.13901809 0.00249966557,8.27051809 0.00899879606,8.40401809 C0.0149979934,8.52051809 0.0239967895,8.63651809 0.034995318,8.75251809 C0.0484935121,8.89901809 0.065491238,9.04451809 0.0869883619,9.19051809 C0.102486288,9.29601809 0.12198368,9.40101809 0.141981004,9.50551809 C0.170477192,9.65501809 0.201972978,9.80301809 0.238968029,9.95201809 C0.265964417,10.0590181 0.296460337,10.1645181 0.327956123,10.2705181 C0.368950638,10.4085181 0.411444953,10.5465181 0.459938465,10.6835181 C0.503432646,10.8060181 0.552426091,10.9255181 0.601419537,11.0460181 C0.648913183,11.1610181 0.695406962,11.2765181 0.748899805,11.3900181 C0.816390776,11.5350181 0.89088081,11.6755181 0.967370576,11.8165181 C1.00186596,11.8810181 1.02986222,11.9475181 1.06685727,12.0115181 C1.08135533,12.0360181 1.09835305,12.0580181 1.11285111,12.0830181 C1.20083934,12.2325181 1.29782637,12.3770181 1.39631319,12.5210181 C1.44880617,12.5985181 1.49929941,12.6780181 1.55379212,12.7530181 C1.64877941,12.8820181 1.75176563,13.0055181 1.85525179,13.1295181 C1.92424256,13.2125181 1.99073366,13.2980181 2.06272403,13.3775181 C2.15221206,13.4770181 2.24969901,13.5705181 2.34468631,13.6655181 C2.4396736,13.7605181 2.53316109,13.8575181 2.63214785,13.9470181 C2.71163721,14.0195181 2.79762571,14.0850181 2.88061461,14.1545181 C3.00459802,14.2575181 3.1280815,14.3610181 3.25656431,14.4560181 C3.33155427,14.5110181 3.41104364,14.5615181 3.48853327,14.6140181 C3.63251401,14.7120181 3.77699468,14.8090181 3.92647468,14.8970181 C3.9509714,14.9115181 3.97296846,14.9285181 3.99746518,14.9435181 C4.06145662,14.9800181 4.12794773,15.0085181 4.1924391,15.0430181 C4.3329203,15.1190181 4.47390144,15.1940181 4.61838211,15.2610181 C4.63238024,15.2675181 4.64587843,15.2755181 4.65987656,15.2825181 C4.7268676,15.3135181 4.79535843,15.3390181 4.8628494,15.3660181 C5.40427697,15.5965181 5.96970132,15.7595181 6.54662413,15.8665181 L8.83281827,11.9055181 C7.18103926,12.2570181 6.00669637,11.8535181 4.74236552,9.75851809 Z"/>
    <path fill="#FC6" d="M15.9808619,7.45001809 C15.9778623,7.40551809 15.9748627,7.36201809 15.9708633,7.31801809 C15.9138709,6.65001809 15.7193969,5.64101809 15.4914274,4.99101809 L10.4920963,4.99101809 C10.6720722,5.19251809 10.7610603,5.30301809 10.9045411,5.54501809 C11.6289442,6.76351809 11.80942,8.80151809 11.1195123,9.99951809 L11.1340104,10.0080181 L7.67447324,16.0015181 C8.66434081,16.0015181 9.99716249,15.8230181 10.9555343,15.4405181 C10.9660329,15.4355181 10.9775313,15.4335181 10.98753,15.4295181 C11.0050276,15.4225181 11.0215254,15.4155181 11.0385232,15.4080181 C11.3654794,15.2730181 11.6889361,15.1245181 12.0033941,14.9425181 C12.2848564,14.7795181 12.5488211,14.5985181 12.8032871,14.4080181 C12.8082864,14.4040181 12.8132857,14.3995181 12.8182851,14.3960181 C13.0632523,14.2115181 13.2932215,14.0130181 13.5121922,13.8060181 C13.5231907,13.7955181 13.5356891,13.7870181 13.5461877,13.7760181 C13.5841826,13.7400181 13.6196778,13.7020181 13.6566729,13.6640181 C14.1411081,13.1800181 14.5570524,12.6445181 14.8960071,12.0670181 C14.9080055,12.0475181 14.9230035,12.0305181 14.9345019,12.0105181 C14.9609984,11.9645181 14.978996,11.9165181 15.0044926,11.8705181 C15.113478,11.6720181 15.2144645,11.4695181 15.3064522,11.2635181 C15.3479466,11.1715181 15.3879413,11.0800181 15.4249363,10.9870181 C15.5029259,10.7915181 15.5714167,10.5935181 15.6339084,10.3935181 C15.6609047,10.3070181 15.6924005,10.2215181 15.7163973,10.1350181 C15.7928871,9.85651809 15.8553787,9.57551809 15.9018725,9.29101809 C15.9108713,9.23701809 15.913371,9.18301809 15.9213699,9.12951809 C15.9563652,8.88501809 15.980362,8.63951809 15.9928603,8.39151809 C15.9958599,8.32551809 15.9958599,8.26001809 15.9973597,8.19351809 C16.0038589,7.94651809 15.9983596,7.69851809 15.9808619,7.45001809 Z"/>
    <path fill="#ED7261" d="M14.3800761,3.17451809 C14.3590789,3.14701809 14.3365819,3.12151809 14.3155847,3.09401809 C14.1386084,2.86551809 13.9506336,2.64901809 13.75266,2.44451809 C13.7086659,2.39801809 13.6641719,2.35251809 13.618678,2.30751809 C13.4012071,2.09301809 13.1757372,1.89101809 12.9387689,1.70501809 C12.9207713,1.69101809 12.9047735,1.67501809 12.8867759,1.66101809 C12.6228112,1.45851809 12.3468481,1.27551809 12.0623862,1.10801809 C12.0423889,1.09651809 12.0253911,1.08151809 12.0053938,1.07001809 C11.9339034,1.02901809 11.8604132,0.997018089 11.7884228,0.958018089 C11.6634396,0.891018089 11.5384563,0.822518089 11.4104734,0.762518089 C11.2869899,0.704518089 11.1620066,0.654018089 11.0375233,0.602518089 C10.9330373,0.560518089 10.8295511,0.515018089 10.7240652,0.477518089 C10.5720856,0.422518089 10.419606,0.376018089 10.2656266,0.330518089 C10.1806379,0.305018089 10.0961492,0.278018089 10.0101607,0.255518089 C9.84268316,0.212518089 9.67470563,0.178518089 9.50622817,0.146018089 C9.42673881,0.131018089 9.34824931,0.113018089 9.26826001,0.0995180889 C9.10378201,0.0730180889 8.93980395,0.0565180889 8.77532596,0.0410180889 C8.685338,0.0320180889 8.59584997,0.0195180889 8.50536208,0.0140180889 C8.363881,0.0050180889 8.22289987,0.0050180889 8.08141879,0.0040180889 C7.96593425,0.0025180889 7.8504497,-0.0024819111 7.73446521,0.0015180889 C7.64397732,0.0045180889 7.55448929,0.0155180889 7.46450133,0.0215180889 C6.86658133,0.0615180889 6.26966119,0.167518089 5.68273971,0.345518089 C5.64224513,0.357018089 5.60125061,0.366518089 5.56125596,0.379018089 C5.4122759,0.427018089 5.26579549,0.485518089 5.11881516,0.542518089 C5.0243278,0.578518089 4.92884058,0.613018089 4.83585302,0.653018089 C4.71386934,0.706018089 4.59438532,0.765518089 4.47440137,0.824518089 C4.35791696,0.882518089 4.24143254,0.939518089 4.12744779,1.00251809 C4.08445354,1.02651809 4.0399595,1.04451809 3.99746518,1.06951809 C3.93047415,1.10801809 3.87048217,1.15351809 3.80549087,1.19351809 C3.69150612,1.26351809 3.57902117,1.33551809 3.46853595,1.41101809 C3.35955053,1.48601809 3.25356471,1.56301809 3.14907869,1.64251809 C3.0555912,1.71401809 2.96460337,1.78701809 2.87461541,1.86251809 C2.76063066,1.95701809 2.64964551,2.05301809 2.54265982,2.15301809 C2.47316912,2.21851809 2.40567815,2.28551809 2.33818718,2.35351809 C2.21970303,2.47201809 2.10371855,2.59251809 1.99373326,2.71751809 C1.96773674,2.74701809 1.94324002,2.77751809 1.91874329,2.80751809 L4.20743709,6.77301809 C4.50239763,5.86451809 5.1073167,5.05351809 5.99919737,4.53801809 C6.63111283,4.17301809 7.32052059,4.01701809 8.00092956,4.01801809 L8.00092956,4.00101809 L14.9355018,4.00101809 C14.7670243,3.70901809 14.5780496,3.43651809 14.3800761,3.17451809 Z"/>
  </g>
</svg>
