<svg xmlns="http://www.w3.org/2000/svg" width="16" height="16" viewBox="0 0 16 16">
  <g fill="none" fill-rule="evenodd">
    <circle cx="8" cy="8" r="6.5" fill="#177EE6"/>
    <path fill="#FF7433" d="M2.85140991,1.65478516 C2.84581502,2.02126736 2.91506619,2.33498806 3.05916341,2.59594727 C3.20326063,2.85690647 3.36702474,3.05145942 3.55045573,3.17960612 C3.74251302,3.11195204 3.96062554,3.078125 4.20479329,3.078125 C4.44896105,3.078125 4.78998481,3.15319824 5.22786458,3.30334473 C5.36393229,3.10046387 5.66343859,2.92215983 6.12638346,2.76843262 C6.58932834,2.6147054 6.97085232,2.57849121 7.2709554,2.65979004 C6.84927029,2.94280328 6.55308702,3.21118164 6.3824056,3.46492513 C6.21172418,3.71866862 6.12638346,3.90519206 6.12638346,4.02449544 C6.19292535,4.28477648 6.32991536,4.46805827 6.53735352,4.57434082 C6.84851074,4.73376465 7.2993571,4.67830404 7.59529622,4.73376465 C7.89123535,4.78922526 8.02193197,4.84562174 8.02193197,4.99153646 C8.02193197,5.13745117 7.86669922,5.56465658 7.48494466,5.77648926 C7.1031901,5.98832194 6.80230713,6.05908203 6.53735352,6.21630859 C6.36071777,6.3211263 6.28041585,6.38338216 6.29644775,6.40307617 L6.34383138,6.52260335 C6.31306627,6.47549778 6.28923543,6.46372138 6.27233887,6.48727417 C6.24699402,6.52260335 6.33187866,6.66314697 6.31216431,6.88267517 C6.2990214,7.0290273 6.27129618,7.13585917 6.22898865,7.20317078 C6.16829936,7.14822896 6.11927795,7.11391703 6.08192444,7.10023499 C6.04457092,7.08655294 6.02630107,7.08017985 6.02711487,7.08111572 C6.13343811,7.17502848 6.18659973,7.24437459 6.18659973,7.28915405 C6.18659973,7.33393351 6.18659973,7.36122131 6.18659973,7.37101746 C6.09151713,7.28004456 5.99128723,7.20432536 5.88591003,7.14385986 C5.78053284,7.08339437 5.69789124,7.04619853 5.63798523,7.03227234 L5.69224548,7.16355896 L5.55133057,7.08111572 C5.418396,7.13440959 5.32462056,7.21565755 5.27000427,7.32485962 C5.18807983,7.48866272 5.11500549,7.86030579 5.29692078,8.11576843 C5.47883606,8.37123108 5.93881226,8.8452301 6.27233887,8.95248413 C6.60586548,9.05973816 6.87997437,9.09153748 7.36569214,8.93115234 C7.85140991,8.77076721 8.41790771,8.70358276 8.79225159,8.93115234 C9.16659546,9.15872192 9.4719696,9.47924805 9.29086304,9.68156433 C9.10975647,9.88388062 8.96357727,9.71260071 8.83746338,9.73248291 C8.71134949,9.75236511 8.48057048,9.82530212 8.03793335,10.0882416 C7.59529622,10.351181 7.25994873,10.4591675 6.7059021,10.4591675 C6.33653768,10.4591675 5.97328186,10.3963369 5.61613464,10.2706757 C5.86500549,10.6931305 6.1947581,11.0016886 6.60539246,11.1963501 C7.22134399,11.4883423 7.91716003,11.6112518 8.40544128,11.5892639 C8.89372253,11.567276 9.96434021,11.3439484 10.6237335,10.6592865 C11.2831268,9.97462463 11.7046661,9.15100098 11.7046661,8.19483948 C11.7046661,7.23867798 11.4597168,6.79688517 11.3286133,6.52260335 C11.2412109,6.33974881 11.1554769,6.20507813 11.0714111,6.11859131 C10.4437052,5.60412598 10.0090637,5.106191 9.76748657,4.62478638 C9.40512085,3.90267944 9.21057129,2.91320801 9.54968262,1.83618164 C9.77575684,1.11816406 10.1217143,0.507904053 10.5875549,0.00540161133 C10.6053975,0.249888102 10.7498372,0.540812174 11.020874,0.878173828 C11.2919108,1.21553548 11.7065938,1.64677938 12.2649231,2.17190552 C12.2991435,1.98503621 12.3487854,1.82935588 12.4138489,1.7048645 C12.4789124,1.58037313 12.5415344,1.48259481 12.6017151,1.41152954 C12.5804545,1.50263468 12.6321716,1.66314697 12.7568665,1.89306641 C12.9439087,2.23794556 13.607666,3.22473145 13.9576416,3.81411743 C14.3076172,4.40350342 14.7461243,5.28009033 14.9308472,6.01000977 C15.0539958,6.49662272 15.1227926,6.87457275 15.1372375,7.14385986 L15.3740082,6.81710815 C15.4832713,7.5469869 15.4832713,8.21535238 15.3740082,8.82220459 C15.2647451,9.4290568 14.9774882,10.1590881 14.5122375,11.0122986 C14.5773417,11.2978617 14.5097961,11.651947 14.3096008,12.0745544 C14.0093079,12.7084656 13.3880005,13.2031555 12.7568665,13.5431213 C12.3361104,13.7697652 12.1154022,13.8884074 12.0947418,13.8990479 C11.9545034,14.1465149 11.7376709,14.3786062 11.4442444,14.5953217 C11.0041046,14.9203949 9.978007,15.4183044 8.1802063,15.3842468 C6.3824056,15.3501892 4.66674805,14.6871948 3.46621704,13.6828613 C2.26568604,12.6785278 1.42703247,11.3865967 1.0513916,10.0882416 C0.800964355,9.22267151 0.706776937,8.47027588 0.768829346,7.83105469 C0.709910075,7.99387614 0.662902832,8.13338216 0.627807617,8.24957275 C0.592712402,8.36576335 0.563852946,8.49947103 0.541229248,8.6506958 C0.564239502,8.05633545 0.620819092,7.53314209 0.710968018,7.08111572 C0.801116943,6.62908936 0.914591471,6.27205404 1.0513916,6.01000977 C0.976623535,6.09147135 0.895222982,6.20643107 0.807189941,6.35488892 C0.719156901,6.50334676 0.646738688,6.64618937 0.589935303,6.78341675 C0.760732015,6.16999308 0.965067546,5.62284342 1.20294189,5.14196777 C1.44081624,4.66109212 1.65344238,4.34125773 1.84082031,4.1824646 C1.81158447,3.87248739 1.88371785,3.43642171 2.05722046,2.87426758 C2.23072306,2.31211344 2.49545288,1.9056193 2.85140991,1.65478516 Z"/>
  </g>
</svg>
