<?xml version="1.0" encoding="UTF-8"?>
<svg width="18px" height="18px" viewBox="0 0 18 18" version="1.1" xmlns="http://www.w3.org/2000/svg" xmlns:xlink="http://www.w3.org/1999/xlink">
    <!-- Generator: Sketch 51.1 (57501) - http://www.bohemiancoding.com/sketch -->
    <title>button_icon-qr</title>
    <desc>Created with Sketch.</desc>
    <defs></defs>
    <g id="atoms" stroke="none" stroke-width="1" fill="none" fill-rule="evenodd">
        <g id="atom-/-button-label-/-icon-/-qr-code" transform="translate(-16.000000, 0.000000)" fill-rule="nonzero">
            <g id="qr-code" transform="translate(17.000000, 1.000000)">
                <rect id="big-square" fill-opacity="0.5" fill="#000000" x="11" y="11" width="5" height="5"></rect>
                <rect id="Rectangle-5" fill-opacity="0.5" fill="#000000" x="3" y="3" width="1" height="1"></rect>
                <rect id="Rectangle-5" fill-opacity="0.5" fill="#000000" x="0" y="7" width="1" height="1"></rect>
                <rect id="Rectangle-5" fill-opacity="0.5" fill="#000000" x="2" y="7" width="1" height="1"></rect>
                <rect id="Rectangle-5" fill-opacity="0.5" fill="#000000" x="2" y="8" width="1" height="1"></rect>
                <rect id="Rectangle-5" fill-opacity="0.5" fill="#000000" x="4" y="8" width="1" height="1"></rect>
                <rect id="Rectangle-5" fill-opacity="0.5" fill="#000000" x="5" y="7" width="1" height="1"></rect>
                <rect id="Rectangle-5" fill-opacity="0.5" fill="#000000" x="6" y="7" width="1" height="1"></rect>
                <rect id="Rectangle-5" fill-opacity="0.5" fill="#000000" x="7" y="5" width="1" height="1"></rect>
                <rect id="Rectangle-5" fill-opacity="0.5" fill="#000000" x="8" y="4" width="1" height="1"></rect>
                <rect id="Rectangle-5" fill-opacity="0.5" fill="#000000" x="8" y="3" width="1" height="1"></rect>
                <rect id="Rectangle-5" fill-opacity="0.5" fill="#000000" x="8" y="1" width="1" height="1"></rect>
                <rect id="Rectangle-5" fill-opacity="0.5" fill="#000000" x="7" y="0" width="1" height="1"></rect>
                <rect id="Rectangle-5" fill-opacity="0.5" fill="#000000" x="8" y="7" width="1" height="1"></rect>
                <rect id="Rectangle-5" fill-opacity="0.5" fill="#000000" x="7" y="8" width="1" height="1"></rect>
                <rect id="Rectangle-5" fill-opacity="0.5" fill="#000000" x="7" y="9" width="1" height="1"></rect>
                <rect id="Rectangle-5" fill-opacity="0.5" fill="#000000" x="8" y="10" width="1" height="1"></rect>
                <rect id="Rectangle-5" fill-opacity="0.5" fill="#000000" x="7" y="12" width="1" height="1"></rect>
                <rect id="Rectangle-5" fill-opacity="0.5" fill="#000000" x="7" y="14" width="1" height="1"></rect>
                <rect id="Rectangle-5" fill-opacity="0.5" fill="#000000" x="8" y="15" width="1" height="1"></rect>
                <rect id="Rectangle-5" fill-opacity="0.5" fill="#000000" x="9" y="15" width="1" height="1"></rect>
                <rect id="Rectangle-5" fill-opacity="0.5" fill="#000000" x="9" y="14" width="1" height="1"></rect>
                <rect id="Rectangle-5" fill-opacity="0.5" fill="#000000" x="9" y="8" width="1" height="1"></rect>
                <rect id="Rectangle-5" fill-opacity="0.5" fill="#000000" x="10" y="13" width="1" height="1"></rect>
                <rect id="Rectangle-5" fill-opacity="0.5" fill="#000000" x="10" y="12" width="1" height="1"></rect>
                <rect id="Rectangle-5" fill-opacity="0.5" fill="#000000" x="9" y="11" width="1" height="1"></rect>
                <rect id="Rectangle-5" fill-opacity="0.5" fill="#000000" x="8" y="12" width="1" height="1"></rect>
                <rect id="Rectangle-5" fill-opacity="0.5" fill="#000000" x="10" y="9" width="1" height="1"></rect>
                <rect id="Rectangle-5" fill-opacity="0.5" fill="#000000" x="10" y="8" width="1" height="1"></rect>
                <rect id="Rectangle-5" fill-opacity="0.5" fill="#000000" x="15" y="7" width="1" height="1"></rect>
                <rect id="Rectangle-5" fill-opacity="0.5" fill="#000000" x="12" y="9" width="1" height="1"></rect>
                <rect id="Rectangle-5" fill-opacity="0.5" fill="#000000" x="11" y="10" width="1" height="1"></rect>
                <rect id="Rectangle-5" fill-opacity="0.5" fill="#000000" x="14" y="9" width="1" height="1"></rect>
                <rect id="Rectangle-5" fill-opacity="0.5" fill="#000000" x="14" y="8" width="1" height="1"></rect>
                <rect id="Rectangle-5" fill-opacity="0.5" fill="#000000" x="13" y="7" width="1" height="1"></rect>
                <rect id="Rectangle-5" fill-opacity="0.5" fill="#000000" x="15" y="9" width="1" height="1"></rect>
                <rect id="Rectangle-5" fill-opacity="0.5" fill="#000000" x="15" y="10" width="1" height="1"></rect>
                <rect id="Rectangle-5" fill-opacity="0.5" fill="#000000" x="12" y="8" width="1" height="1"></rect>
                <rect id="Rectangle-5" fill-opacity="0.5" fill="#000000" x="10" y="7" width="1" height="1"></rect>
                <rect id="Rectangle-5" fill-opacity="0.5" fill="#000000" x="12" y="3" width="1" height="1"></rect>
                <rect id="Rectangle-5" fill-opacity="0.5" fill="#000000" x="3" y="12" width="1" height="1"></rect>
                <rect id="Rectangle-5" stroke-opacity="0.5" stroke="#000000" stroke-width="2" x="1" y="10" width="5" height="5"></rect>
                <rect id="Rectangle-5" stroke-opacity="0.5" stroke="#000000" stroke-width="2" x="1" y="1" width="5" height="5"></rect>
                <rect id="Rectangle-5" stroke-opacity="0.5" stroke="#000000" stroke-width="2" x="10" y="1" width="5" height="5"></rect>
            </g>
        </g>
    </g>
</svg>